<svg width="1200" height="630" viewBox="0 0 1200 630" xmlns="http://www.w3.org/2000/svg">
  <rect width="1200" height="630" fill="#f8f8f8"/>
  <g fill="none" stroke="#0a0a0a" stroke-width="1">
    <path stroke-opacity="0.42" d="M803 619L877 596M803 619L807 565M877 596L951 575M877 596L873 545M951 575L1025 558M951 575L938 526M1025 558L1100 548M1025 558L1003 511M1100 548L1174 544M1100 548L1068 501M1174 544L1248 547M1174 544L1133 496M1248 547L1322 555M1248 547L1198 498M1322 555L1396 569M1322 555L1264 506M1396 569L1471 585M1396 569L1329 518M1471 585L1545 601M1471 585L1394 533M1545 601L1619 617M1545 601L1459 550M1619 617L1693 630M1619 617L1524 566M1693 630L1767 641M1693 630L1590 580M1767 641L1841 648M1767 641L1655 591M1841 648L1916 652M1841 648L1720 600M1916 652L1990 655M1916 652L1785 605M1990 655L2064 659M1990 655L1850 609M2064 659L1915 611"/>
    <path stroke-opacity="0.41" d="M807 565L873 545M807 565L811 522M873 545L938 526M873 545L869 505M938 526L1003 511M938 526L927 488M1003 511L1068 501M1003 511L985 474M1068 501L1133 496M1068 501L1043 465M1133 496L1198 498M1133 496L1102 460M1198 498L1264 506M1198 498L1160 461M1264 506L1329 518M1264 506L1218 468M1329 518L1394 533M1329 518L1276 479M1394 533L1459 550M1394 533L1334 493M1459 550L1524 566M1459 550L1392 509M1524 566L1590 580M1524 566L1450 526M1590 580L1655 591M1590 580L1508 540M1655 591L1720 600M1655 591L1567 552M1720 600L1785 605M1720 600L1625 562M1785 605L1850 609M1785 605L1683 568M1850 609L1915 611M1850 609L1741 572M1915 611L1799 574"/>
    <path stroke-opacity="0.4" d="M811 522L869 505M811 522L814 488M869 505L927 488M869 505L866 473M927 488L985 474M927 488L919 458M985 474L1043 465M985 474L971 446M1043 465L1102 460M1043 465L1024 437M1102 460L1160 461M1102 460L1076 432M1160 461L1218 468M1160 461L1128 433M1218 468L1276 479M1218 468L1181 438M1276 479L1334 493M1276 479L1233 448M1334 493L1392 509M1334 493L1286 462M1392 509L1450 526M1392 509L1338 477M1450 526L1508 540M1450 526L1391 493M1508 540L1567 552M1508 540L1443 508M1567 552L1625 562M1567 552L1496 521M1625 562L1683 568M1625 562L1548 531M1683 568L1741 572M1683 568L1601 538M1741 572L1799 574M1741 572L1653 542M1799 574L1705 545"/>
    <path stroke-opacity="0.38" d="M729 643L803 619M742 585L807 565M814 488L866 473M814 488L816 459M866 473L919 458M866 473L864 446M919 458L971 446M919 458L912 433M971 446L1024 437M971 446L959 422M1024 437L1076 432M1024 437L1007 414M1076 432L1128 433M1076 432L1055 410M1128 433L1181 438M1128 433L1103 410M1181 438L1233 448M1181 438L1151 415M1233 448L1286 462M1233 448L1198 424M1286 462L1338 477M1286 462L1246 436M1338 477L1391 493M1338 477L1294 451M1391 493L1443 508M1391 493L1342 467M1443 508L1496 521M1443 508L1390 482M1496 521L1548 531M1496 521L1437 495M1548 531L1601 538M1548 531L1485 505M1601 538L1653 542M1601 538L1533 513M1653 542L1705 545M1653 542L1581 518M1705 545L1628 520"/>
    <path stroke-opacity="0.37" d="M753 539L811 522M761 502L814 488M816 459L864 446M816 459L818 435M864 446L912 433M864 446L862 424M912 433L959 422M912 433L906 413M959 422L1007 414M959 422L950 404M1007 414L1055 410M1007 414L994 396M1055 410L1103 410M1055 410L1037 392M1103 410L1151 415M1103 410L1081 392M1151 415L1198 424M1151 415L1125 396M1198 424L1246 436M1198 424L1169 404M1246 436L1294 451M1246 436L1213 416M1294 451L1342 467M1294 451L1257 430M1342 467L1390 482M1342 467L1301 445M1390 482L1437 495M1390 482L1345 459M1437 495L1485 505M1437 495L1389 473M1485 505L1533 513M1485 505L1432 484M1533 513L1581 518M1533 513L1476 492M1581 518L1628 520M1581 518L1520 497M1628 520L1564 499"/>
    <path stroke-opacity="0.36" d="M768 471L816 459M774 445L818 435M818 435L862 424M818 435L820 414M862 424L906 413M862 424L860 405M906 413L950 404M906 413L901 396M950 404L994 396M950 404L941 388M994 396L1037 392M994 396L982 381M1037 392L1081 392M1037 392L1023 378M1081 392L1125 396M1081 392L1063 377M1125 396L1169 404M1125 396L1104 381M1169 404L1213 416M1169 404L1144 388M1213 416L1257 430M1213 416L1185 399M1257 430L1301 445M1257 430L1225 412M1301 445L1345 459M1301 445L1266 426M1345 459L1389 473M1345 459L1307 440M1389 473L1432 484M1389 473L1347 454M1432 484L1476 492M1432 484L1388 465M1476 492L1520 497M1476 492L1428 473M1520 497L1564 499M1520 497L1469 478M1564 499L1509 481"/>
    <path stroke-opacity="0.35" d="M779 422L820 414M820 414L860 405M820 414L821 396M860 405L901 396M860 405L859 389M901 396L941 388M901 396L897 382M941 388L982 381M941 388L934 375M982 381L1023 378M982 381L972 369M1023 378L1063 377M1023 378L1010 366M1063 377L1104 381M1063 377L1047 365M1104 381L1144 388M1104 381L1085 368M1144 388L1185 399M1144 388L1123 375M1185 399L1225 412M1185 399L1161 384M1225 412L1266 426M1225 412L1198 396M1266 426L1307 440M1266 426L1236 410M1307 440L1347 454M1307 440L1274 424M1347 454L1388 465M1347 454L1311 437M1388 465L1428 473M1388 465L1349 448M1428 473L1469 478M1428 473L1387 457M1469 478L1509 481M1469 478L1425 462M1509 481L1462 465"/>
    <path stroke-opacity="0.34" d="M729 643L742 585M742 585L753 539M753 539L761 502M761 502L768 471M768 471L774 445M774 445L779 422M783 402L821 396M821 396L859 389M821 396L822 380M859 389L897 382M859 389L858 375M897 382L934 375M897 382L893 369M934 375L972 369M934 375L928 364M972 369L1010 366M972 369L963 359M1010 366L1047 365M1010 366L999 356M1047 365L1085 368M1047 365L1034 356M1085 368L1123 375M1085 368L1069 358M1123 375L1161 384M1123 375L1104 364M1161 384L1198 396M1161 384L1140 373M1198 396L1236 410M1198 396L1175 384M1236 410L1274 424M1236 410L1210 396M1274 424L1311 437M1274 424L1245 410M1311 437L1349 448M1311 437L1281 422M1349 448L1387 457M1349 448L1316 433M1387 457L1425 462M1387 457L1351 442M1425 462L1462 465M1425 462L1386 448M1462 465L1422 451"/>
    <path stroke-opacity="0.33" d="M779 422L783 402"/>
    <path stroke-opacity="0.32" d="M783 402L787 385M787 385L822 380M822 380L858 375M822 380L823 367M858 375L893 369M858 375L857 363M893 369L928 364M893 369L890 359M928 364L963 359M928 364L923 354M963 359L999 356M963 359L956 351M999 356L1034 356M999 356L989 348M1034 356L1069 358M1034 356L1022 348M1069 358L1104 364M1069 358L1055 350M1104 364L1140 373M1104 364L1088 355M1140 373L1175 384M1140 373L1121 363M1175 384L1210 396M1175 384L1154 373M1210 396L1245 410M1210 396L1187 385M1245 410L1281 422M1245 410L1220 397M1281 422L1316 433M1281 422L1253 409M1316 433L1351 442M1316 433L1287 420M1351 442L1386 448M1351 442L1320 429M1386 448L1422 451M1386 448L1353 435M1422 451L1386 438"/>
    <path stroke-opacity="0.31" d="M709 514L761 502M721 481L768 471M730 453L774 445M787 385L790 370M790 370L823 367M823 367L857 363M823 367L824 354M857 363L890 359M857 363L856 352M890 359L923 354M890 359L887 349M923 354L956 351M923 354L918 346M956 351L989 348M956 351L949 343M989 348L1022 348M989 348L980 341M1022 348L1055 350M1022 348L1011 341M1055 350L1088 355M1055 350L1043 343M1088 355L1121 363M1088 355L1074 348M1121 363L1154 373M1121 363L1105 354M1154 373L1187 385M1154 373L1136 363M1187 385L1220 397M1187 385L1167 374M1220 397L1253 409M1220 397L1198 386M1253 409L1287 420M1253 409L1229 397M1287 420L1320 429M1287 420L1261 408M1320 429L1353 435M1320 429L1292 416M1353 435L1386 438M1353 435L1323 423M1386 438L1354 426"/>
    <path stroke-opacity="0.3" d="M677 603L742 585M695 554L753 539M739 428L779 422M746 407L783 402M790 370L793 356M793 356L824 354M824 354L856 352M824 354L825 343M856 352L887 349M856 352L855 342M887 349L918 346M887 349L884 341M918 346L949 343M918 346L914 339M949 343L980 341M949 343L943 337M980 341L1011 341M980 341L973 336M1011 341L1043 343M1011 341L1002 336M1043 343L1074 348M1043 343L1031 338M1074 348L1105 354M1074 348L1061 341M1105 354L1136 363M1105 354L1090 347M1136 363L1167 374M1136 363L1120 356M1167 374L1198 386M1167 374L1149 365M1198 386L1229 397M1198 386L1179 376M1229 397L1261 408M1229 397L1208 387M1261 408L1292 416M1261 408L1238 397M1292 416L1323 423M1292 416L1267 405M1323 423L1354 426M1323 423L1296 411M1354 426L1326 415"/>
    <path stroke-opacity="0.29" d="M721 481L730 453M730 453L739 428M739 428L746 407M752 388L787 385M757 372L790 370M793 356L796 344M796 344L825 343M825 343L855 342M825 343L826 333M855 342L884 341M855 342L854 333M884 341L914 339M884 341L882 333M914 339L943 337M914 339L910 332M943 337L973 336M943 337L938 332M973 336L1002 336M973 336L966 331M1002 336L1031 338M1002 336L994 331M1031 338L1061 341M1031 338L1021 333M1061 341L1090 347M1061 341L1049 336M1090 347L1120 356M1090 347L1077 342M1120 356L1149 365M1120 356L1105 349M1149 365L1179 376M1149 365L1133 357M1179 376L1208 387M1179 376L1161 367M1208 387L1238 397M1208 387L1189 377M1238 397L1267 405M1238 397L1217 387M1267 405L1296 411M1267 405L1245 395M1296 411L1326 415M1296 411L1273 401M1326 415L1301 404"/>
    <path stroke-opacity="0.28" d="M655 664L729 643M695 554L709 514M709 514L721 481M746 407L752 388M752 388L757 372M762 357L793 356M796 344L798 333M798 333L826 333M798 333L800 323M826 333L854 333M826 333L827 324M854 333L882 333M854 333L853 325M882 333L910 332M882 333L880 326M910 332L938 332M910 332L906 327M938 332L966 331M938 332L933 327M966 331L994 331M966 331L959 327M994 331L1021 333M994 331L986 328M1021 333L1049 336M1021 333L1013 329M1049 336L1077 342M1049 336L1039 332M1077 342L1105 349M1077 342L1066 337M1105 349L1133 357M1105 349L1092 343M1133 357L1161 367M1133 357L1119 350M1161 367L1189 377M1161 367L1145 359M1189 377L1217 387M1189 377L1172 368M1217 387L1245 395M1217 387L1198 377M1245 395L1273 401M1245 395L1225 385M1273 401L1301 404M1273 401L1251 391M1301 404L1278 394"/>
    <path stroke-opacity="0.27" d="M677 603L695 554M757 372L762 357M762 357L766 344M766 344L796 344"/>
    <path stroke-opacity="0.26" d="M673 489L721 481M686 459L730 453M698 433L739 428M708 411L746 407M717 391L752 388M724 374L757 372M766 344L770 333M770 333L798 333M800 323L827 324M800 323L802 314M827 324L853 325M827 324L827 316M853 325L880 326M853 325L853 318M880 326L906 327M880 326L878 320M906 327L933 327M906 327L903 321M933 327L959 327M933 327L929 323M959 327L986 328M959 327L954 323M986 328L1013 329M986 328L979 324M1013 329L1039 332M1013 329L1004 326M1039 332L1066 337M1039 332L1030 329M1066 337L1092 343M1066 337L1055 332M1092 343L1119 350M1092 343L1080 338M1119 350L1145 359M1119 350L1106 344M1145 359L1172 368M1145 359L1131 352M1172 368L1198 377M1172 368L1156 360M1198 377L1225 385M1198 377L1181 368M1225 385L1251 391M1225 385L1207 376M1251 391L1278 394M1251 391L1232 381M1278 394L1257 385"/>
    <path stroke-opacity="0.25" d="M655 664L677 603M656 524L709 514M698 433L708 411M708 411L717 391M717 391L724 374M731 359L762 357M737 345L766 344M770 333L774 322M774 322L800 323M802 314L827 316M802 314L804 307M827 316L853 318M827 316L828 309M853 318L878 320M853 318L852 312M878 320L903 321M878 320L876 314M903 321L929 323M903 321L900 317M929 323L954 323M929 323L925 319M954 323L979 324M954 323L949 320M979 324L1004 326M979 324L973 322M1004 326L1030 329M1004 326L997 323M1030 329L1055 332M1030 329L1021 325M1055 332L1080 338M1055 332L1045 329M1080 338L1106 344M1080 338L1069 333M1106 344L1131 352M1106 344L1094 339M1131 352L1156 360M1131 352L1118 346M1156 360L1181 368M1156 360L1142 353M1181 368L1207 376M1181 368L1166 360M1207 376L1232 381M1207 376L1190 367M1232 381L1257 385M1232 381L1214 372M1257 385L1239 376"/>
    <path stroke-opacity="0.24" d="M673 489L686 459M686 459L698 433M724 374L731 359M731 359L737 345M742 333L770 333M774 322L777 313M777 313L802 314M804 307L828 309M804 307L805 300M828 309L852 312M828 309L828 302M852 312L876 314M852 312L852 306M876 314L900 317M876 314L875 309M900 317L925 319M900 317L898 312M925 319L949 320M925 319L921 315M949 320L973 322M949 320L944 317M973 322L997 323M973 322L967 319M997 323L1021 325M997 323L990 321M1021 325L1045 329M1021 325L1013 323M1045 329L1069 333M1045 329L1036 326M1069 333L1094 339M1069 333L1060 329M1094 339L1118 346M1094 339L1083 334M1118 346L1142 353M1118 346L1106 340M1142 353L1166 360M1142 353L1129 346M1166 360L1190 367M1166 360L1152 352M1190 367L1214 372M1190 367L1175 359M1214 372L1239 376M1214 372L1198 363M1239 376L1221 367"/>
    <path stroke-opacity="0.23" d="M637 566L695 554M656 524L673 489M681 394L717 391M691 376L724 374M737 345L742 333M742 333L747 323M747 323L774 322M751 313L777 313M777 313L780 305M780 305L804 307M780 305L782 298M805 300L828 302M805 300L807 293M828 302L852 306M828 302L829 297M852 306L875 309M852 306L851 300M875 309L898 312M875 309L873 305M898 312L921 315M898 312L895 308M921 315L944 317M921 315L918 312M944 317L967 319M944 317L940 315M967 319L990 321M967 319L962 317M990 321L1013 323M990 321L984 319M1013 323L1036 326M1013 323L1006 321M1036 326L1060 329M1036 326L1028 323M1060 329L1083 334M1060 329L1051 326M1083 334L1106 340M1083 334L1073 330M1106 340L1129 346M1106 340L1095 334M1129 346L1152 352M1129 346L1117 340M1152 352L1175 359M1152 352L1139 345M1175 359L1198 363M1175 359L1161 351M1198 363L1221 367M1198 363L1183 355M1221 367L1206 358"/>
    <path stroke-opacity="0.22" d="M612 617L677 603M657 437L698 433M670 414L708 411M700 361L731 359M707 347L737 345M714 335L742 333M747 323L751 313M751 313L755 305M755 305L780 305M782 298L805 300M782 298L785 292M807 293L829 297M807 293L808 288M829 297L851 300M829 297L829 291M851 300L873 305M851 300L851 296M873 305L895 308M873 305L872 300M895 308L918 312M895 308L893 305M918 312L940 315M918 312L914 309M940 315L962 317M940 315L936 312M962 317L984 319M962 317L957 315M984 319L1006 321M984 319L978 317M1006 321L1028 323M1006 321L1000 319M1028 323L1051 326M1028 323L1021 321M1051 326L1073 330M1051 326L1042 323M1073 330L1095 334M1073 330L1063 326M1095 334L1117 340M1095 334L1085 330M1117 340L1139 345M1117 340L1106 334M1139 345L1161 351M1139 345L1127 339M1161 351L1183 355M1161 351L1149 343M1183 355L1206 358M1183 355L1170 347M1206 358L1191 350"/>
    <path stroke-opacity="0.21" d="M637 566L656 524M643 463L686 459M670 414L681 394M681 394L691 376M691 376L700 361M700 361L707 347M707 347L714 335M714 335L721 324M721 324L747 323M755 305L759 298M759 298L782 298M785 292L807 293M785 292L787 286"/>
    <path stroke-opacity="0.2" d="M625 494L673 489M643 463L657 437M657 437L670 414M669 364L700 361M721 324L726 315M726 315L751 313M726 315L731 307M731 307L755 305M759 298L762 292M762 292L785 292M787 286L808 288M787 286L789 282M808 288L829 291M808 288L809 283M829 291L851 296M829 291L830 287M851 296L872 300M851 296L850 291M872 300L893 305M872 300L871 296M893 305L914 309M893 305L891 301M914 309L936 312M914 309L912 306M936 312L957 315M936 312L932 310M957 315L978 317M957 315L953 313M978 317L1000 319M978 317L973 315M1000 319L1021 321M1000 319L994 317M1021 321L1042 323M1021 321L1014 318M1042 323L1063 326M1042 323L1034 320M1063 326L1085 330M1063 326L1055 322M1085 330L1106 334M1085 330L1075 325M1106 334L1127 339M1106 334L1096 329M1127 339L1149 343M1127 339L1116 332M1149 343L1170 347M1149 343L1137 336M1170 347L1191 350M1170 347L1157 340M1191 350L1178 343"/>
    <path stroke-opacity="0.19" d="M580 681L655 664M612 617L637 566M604 530L656 524M646 396L681 394M658 379L691 376M678 350L707 347M686 338L714 335M694 328L721 324M701 319L726 315M731 307L736 300M736 300L759 298M762 292L766 286M766 286L787 286M789 282L809 283M789 282L791 278M809 283L830 287M809 283L810 279M830 287L850 291M830 287L830 283M850 291L871 296M850 291L850 287M871 296L891 301M871 296L870 292M891 301L912 306M891 301L889 298M912 306L932 310M912 306L909 303M932 310L953 313M932 310L929 307M953 313L973 315M953 313L948 311M973 315L994 317M973 315L968 313M994 317L1014 318M994 317L988 315M1014 318L1034 320M1014 318L1008 316M1034 320L1055 322M1034 320L1027 318M1055 322L1075 325M1055 322L1047 319M1075 325L1096 329M1075 325L1067 321M1096 329L1116 332M1096 329L1086 324M1116 332L1137 336M1116 332L1106 327M1137 336L1157 340M1137 336L1126 330M1157 340L1178 343M1157 340L1146 333M1178 343L1165 335"/>
    <path stroke-opacity="0.18" d="M625 494L643 463M617 440L657 437M633 417L670 414M646 396L658 379M658 379L669 364M669 364L678 350M678 350L686 338M686 338L694 328M694 328L701 319M701 319L707 311M707 311L731 307M713 304L736 300M736 300L740 294M740 294L762 292M740 294L744 288M744 288L766 286M766 286L768 282M768 282L789 282M791 278L810 279M810 279L830 283M810 279L811 276M830 283L850 287M830 283L830 279M850 287L870 292M850 287L850 284M870 292L889 298M870 292L869 289M889 298L909 303M889 298L888 295M909 303L929 307M909 303L907 300M929 307L948 311M929 307L926 305M948 311L968 313M948 311L945 309M968 313L988 315M968 313L964 311M988 315L1008 316M988 315L983 313M1008 316L1027 318M1008 316L1002 314M1027 318L1047 319M1027 318L1021 315M1047 319L1067 321M1047 319L1040 316M1067 321L1086 324M1067 321L1059 317M1086 324L1106 327M1086 324L1078 319M1106 327L1126 330M1106 327L1097 321M1126 330L1146 333M1126 330L1116 323M1146 333L1165 335M1146 333L1135 326M1165 335L1154 328"/>
    <path stroke-opacity="0.17" d="M578 574L637 566M604 530L625 494M633 417L646 396M637 368L669 364M649 355L678 350M659 343L686 338M667 333L694 328M676 324L701 319M707 311L713 304M713 304L718 298M718 298L740 294M744 288L748 284M748 284L768 282M768 282L771 278M771 278L791 278M771 278L773 275M791 278L792 274M792 274L811 276M811 276L830 279M830 279L850 284M850 284L869 289M869 289L888 295M888 295L907 300M907 300L926 305M926 305L945 309M945 309L964 311M964 311L983 313M983 313L1002 314M1002 314L1021 315M1021 315L1040 316M1040 316L1059 317M1059 317L1078 319M1078 319L1097 321M1097 321L1116 323M1116 323L1135 326M1135 326L1154 328"/>
    <path stroke-opacity="0.16" d="M580 681L612 617M599 466L643 463M617 440L633 417M611 400L646 396M625 383L658 379M637 368L649 355M649 355L659 343M659 343L667 333M667 333L676 324M676 324L683 317M683 317L707 311M683 317L690 310M690 310L713 304M718 298L723 293M723 293L744 288M723 293L727 288M727 288L748 284M748 284L751 280M751 280L771 278M773 275L792 274"/>
    <path stroke-opacity="0.15" d="M577 497L625 494M599 466L617 440M595 420L633 417M625 383L637 368M631 350L659 343M641 340L667 333M650 332L676 324M659 324L683 317M690 310L696 304M696 304L718 298M696 304L702 299M702 299L723 293M727 288L732 284M732 284L751 280M751 280L754 277M754 277L773 275"/>
    <path stroke-opacity="0.14" d="M547 627L612 617M578 574L604 530M595 420L611 400M611 400L625 383M606 374L637 368M619 361L649 355M619 361L631 350M631 350L641 340M641 340L650 332M650 332L659 324M659 324L667 317M667 317L690 310M667 317L674 311M674 311L696 304M674 311L680 306M680 306L702 299M702 299L707 294M707 294L727 288M707 294L712 290M712 290L732 284M732 284L735 281M735 281L754 277"/>
    <path stroke-opacity="0.13" d="M577 497L599 466M576 442L617 440M592 388L625 383M606 374L619 361M614 349L641 340M625 341L650 332M635 333L659 324M644 326L667 317M652 320L674 311M680 306L686 301M686 301L707 294M686 301L692 297M692 297L712 290M712 290L716 286M716 286L735 281"/>
    <path stroke-opacity="0.12" d="M552 534L604 530M555 469L599 466M576 442L595 420M576 405L611 400M592 388L606 374M590 370L619 361M603 359L631 350M603 359L614 349M614 349L625 341M625 341L635 333M635 333L644 326M644 326L652 320M652 320L659 314M659 314L680 306M659 314L666 309M666 309L686 301M666 309L672 304M672 304L692 297M692 297L697 293M697 293L716 286"/>
    <path stroke-opacity="0.11" d="M547 627L578 574M552 534L577 497M557 424L595 420M576 405L592 388M575 382L606 374M590 370L603 359M600 350L625 341M611 342L635 333M611 342L620 335M620 335L644 326M620 335L629 328M629 328L652 320M629 328L638 322M638 322L659 314M638 322L646 316M646 316L666 309M672 304L678 299M678 299L697 293"/>
    <path stroke-opacity="0.1" d="M520 579L578 574M555 469L576 442M557 424L576 405M559 395L592 388M575 382L590 370M575 368L603 359M588 359L614 349M588 359L600 350M600 350L611 342M597 344L620 335M607 336L629 328M617 329L638 322M625 323L646 316M646 316L653 311M653 311L672 304M653 311L659 305M659 305L678 299"/>
    <path stroke-opacity="0.09" d="M506 694L580 681M529 500L577 497M536 446L576 442M540 411L576 405M559 395L575 382M560 379L590 370M560 379L575 368M575 368L588 359M574 359L600 350M586 351L611 342M586 351L597 344M597 344L607 336M607 336L617 329M617 329L625 323M625 323L633 317M633 317L653 311M633 317L640 311M640 311L659 305"/>
    <path stroke-opacity="0.08" d="M520 579L552 534M529 500L555 469M536 446L557 424M540 411L559 395M544 391L575 382M547 378L575 368M561 368L588 359M561 368L574 359M574 359L586 351M562 359L586 351M574 351L597 344M574 351L585 343M585 343L607 336M585 343L595 336M595 336L617 329M595 336L605 329M605 329L625 323M605 329L613 322M613 322L633 317M613 322L621 315M621 315L640 311"/>
    <path stroke-opacity="0.07" d="M506 694L547 627M511 471L555 469M519 429L557 424M526 404L559 395M544 391L560 379M531 388L560 379M547 378L561 368M549 368L574 359M549 368L562 359M562 359L574 351M563 348L585 343M574 340L595 336M574 340L584 333M584 333L605 329M584 333L594 325M594 325L613 322M594 325L602 318M602 318L621 315"/>
    <path stroke-opacity="0.06" d="M482 633L547 627M499 536L552 534M511 471L536 446M519 429L540 411M526 404L544 391M531 388L547 378M535 377L561 368M535 377L549 368M538 366L562 359M551 357L574 351M551 357L563 348M563 348L574 340M553 343L574 340M553 343L564 335M564 335L584 333M564 335L574 327M574 327L594 325M574 327L583 320M583 320L602 318"/>
    <path stroke-opacity="0.05" d="M499 536L529 500M495 450L536 446M505 419L540 411M513 400L544 391M513 400L531 388M519 387L547 378M519 387L535 377M524 375L549 368M524 375L538 366M538 366L551 357M528 361L551 357M541 352L563 348M541 352L553 343M543 336L564 335M543 336L554 328M554 328L574 327M554 328L564 321M564 321L583 320"/>
    <path stroke-opacity="0.04" d="M482 633L520 579M482 501L529 500M495 450L519 429M505 419L526 404M493 413L526 404M501 398L531 388M501 398L519 387M508 385L535 377M508 385L524 375M514 370L538 366M514 370L528 361M528 361L541 352M519 353L541 352M519 353L531 345M531 345L553 343M531 345L543 336M523 336L543 336M534 329L554 328M534 329L545 321M545 321L564 321"/>
    <path stroke-opacity="0.03" d="M462 580L520 579M482 501L511 471M482 436L519 429M493 413L513 400M482 409L513 400M491 395L519 387M491 395L508 385M499 380L524 375M499 380L514 370M505 363L528 361M505 363L519 353M497 353L519 353M510 345L531 345M510 345L523 336M502 336L523 336M523 336L534 329M515 328L534 329M515 328L526 321M526 321L545 321"/>
    <path stroke-opacity="0.02" d="M467 475L511 471M482 436L505 419M470 427L505 419M482 409L501 398M482 390L508 385M482 390L499 380M490 372L514 370M490 372L505 363M482 362L505 363M497 353L510 345M489 344L510 345M489 344L502 336M502 336L515 328"/>
    <path stroke-opacity="0.01" d="M462 580L499 536M467 475L495 450M455 456L495 450M470 427L493 413M460 422L493 413M472 406L501 398M472 406L491 395M463 401L491 395M473 382L499 380M473 382L490 372M466 372L490 372M482 362L497 353M474 352L497 353M474 352L489 344"/>
  </g>
  <text x="80" y="98" font-family="'DM Mono','Liberation Mono',ui-monospace,monospace" font-size="21" fill="#0a0a0a" letter-spacing="3">RMJ</text>
  <text x="80" y="290" font-family="'Anton','Liberation Sans Narrow',sans-serif" font-size="132" font-weight="400" fill="#0a0a0a" letter-spacing="-2">ROBERTO</text>
  <text x="80" y="404" font-family="'Anton','Liberation Sans Narrow',sans-serif" font-size="132" font-weight="400" fill="#0a0a0a" letter-spacing="-2">MEDIANA JR.</text>
  <rect x="80" y="438" width="132" height="2" fill="#0a0a0a"/>
  <text x="80" y="482" font-family="'DM Mono','Liberation Mono',ui-monospace,monospace" font-size="16" fill="#5a5a5a" letter-spacing="2">FULL-STACK DEVELOPER · WEB PENETRATION TESTER</text>
  <text x="80" y="508" font-family="'DM Mono','Liberation Mono',ui-monospace,monospace" font-size="13" fill="#5a5a5a" letter-spacing="2">WVSU JANIUAY CAMPUS · ILOILO, PHILIPPINES</text>
  <line x1="80" y1="540" x2="1120" y2="540" stroke="#c8c8c8"/>
  <text x="80" y="578" font-family="'Anton','Liberation Sans Narrow',sans-serif" font-size="30" font-weight="400" fill="#0a0a0a">8+</text>
  <text x="80" y="600" font-family="'DM Mono','Liberation Mono',ui-monospace,monospace" font-size="11" fill="#4a4a4a" letter-spacing="2">PROJECTS</text>
  <text x="230" y="578" font-family="'Anton','Liberation Sans Narrow',sans-serif" font-size="30" font-weight="400" fill="#0a0a0a">15+</text>
  <text x="230" y="600" font-family="'DM Mono','Liberation Mono',ui-monospace,monospace" font-size="11" fill="#4a4a4a" letter-spacing="2">TECHNOLOGIES</text>
  <text x="380" y="578" font-family="'Anton','Liberation Sans Narrow',sans-serif" font-size="30" font-weight="400" fill="#0a0a0a">2026</text>
  <text x="380" y="600" font-family="'DM Mono','Liberation Mono',ui-monospace,monospace" font-size="11" fill="#4a4a4a" letter-spacing="2">EXPECTED BSIT</text>
  <text x="1120" y="600" font-family="'DM Mono','Liberation Mono',ui-monospace,monospace" font-size="13" fill="#0a0a0a" letter-spacing="2" text-anchor="end">RMJDEV.VERCEL.APP</text>
</svg>
